<?xml version="1.0" encoding="UTF-8"?>
<svg xmlns="http://www.w3.org/2000/svg" viewBox="0 0 40 40" focusable="false" class="chakra-icon css-z5ki8p"><g clip-path="url(#clip0_3712_74560)"><path d="M19.9978 38.2456C9.91781 38.2456 1.75781 30.0856 1.75781 20.0056C1.75781 9.92562 9.91781 1.76562 19.9978 1.76562C30.0778 1.76562 38.2378 9.92562 38.2378 20.0056C38.2378 30.0856 30.0778 38.2456 19.9978 38.2456Z" fill="#22c55e"></path><path d="M19.9986 2.9625C29.3586 2.9625 37.0386 10.6425 37.0386 20.0025C37.0386 29.3625 29.3586 37.0425 19.9986 37.0425C10.6386 37.0425 2.95859 29.3625 2.95859 20.0025C2.95859 10.6425 10.6386 2.9625 19.9986 2.9625ZM19.9986 0.5625C9.27859 0.5625 0.558594 9.2825 0.558594 20.0025C0.558594 30.7225 9.27859 39.4425 19.9986 39.4425C30.7186 39.4425 39.4386 30.7225 39.4386 20.0025C39.4386 9.2825 30.7186 0.5625 19.9986 0.5625Z" fill="#15803d"></path><path d="M18.5612 13.4375H21.3612L26.7213 26.6375H23.6012L22.5612 23.8375H17.2812L16.2412 26.6375H13.2812L18.5612 13.4375ZM18.1613 21.5175H21.6812L21.1212 20.0775C20.7212 19.0375 20.2412 17.7575 19.9212 16.7175C19.6012 17.7575 19.1212 19.0375 18.7212 20.1575L18.1613 21.5175Z" fill="var(--chakra-colors-icon-strong)"></path></g><defs><clipPath id="clip0_3712_74560"><rect width="40" height="40" fill="white"></rect></clipPath></defs></svg>
