<?xml version="1.0" encoding="UTF-8"?>
<svg xmlns="http://www.w3.org/2000/svg" viewBox="0 0 40 40" focusable="false" class="chakra-icon css-z5ki8p"><g clip-path="url(#clip0_3712_74566)"><path d="M19.9978 38.2456C9.91781 38.2456 1.75781 30.0856 1.75781 20.0056C1.75781 9.92562 9.91781 1.76562 19.9978 1.76562C30.0778 1.76562 38.2378 9.92562 38.2378 20.0056C38.2378 30.0856 30.0778 38.2456 19.9978 38.2456Z" fill="#ef4444"></path><path d="M19.9986 2.9625C29.3586 2.9625 37.0386 10.6425 37.0386 20.0025C37.0386 29.3625 29.3586 37.0425 19.9986 37.0425C10.6386 37.0425 2.95859 29.3625 2.95859 20.0025C2.95859 10.6425 10.6386 2.9625 19.9986 2.9625ZM19.9986 0.5625C9.27859 0.5625 0.558594 9.2825 0.558594 20.0025C0.558594 30.7225 9.27859 39.4425 19.9986 39.4425C30.7186 39.4425 39.4386 30.7225 39.4386 20.0025C39.4386 9.2825 30.7186 0.5625 19.9986 0.5625Z" fill="#b91c1c"></path><path d="M16 13.5938H19.68C23.36 13.5938 24.96 14.7138 24.96 16.7938C24.96 18.0738 24.24 18.8738 23.04 19.3538C24.64 19.8338 25.44 20.9538 25.44 22.4738C25.44 24.8738 23.6 26.3138 19.68 26.3138H16V13.5938ZM20.32 18.8738C21.52 18.8738 22.24 18.3937 22.24 17.4337C22.24 16.3937 21.6 15.9938 19.68 15.9938H18.8V18.8738H20.32ZM19.84 23.9938C22.16 23.9938 22.72 23.5138 22.72 22.3938C22.72 21.3538 21.92 20.7938 20.48 20.7938H18.8V23.9938H19.84Z" fill="var(--chakra-colors-icon-strong)"></path></g><defs><clipPath id="clip0_3712_74566"><rect width="40" height="40" fill="white"></rect></clipPath></defs></svg>
