<?xml version="1.0" encoding="UTF-8"?>
<svg xmlns="http://www.w3.org/2000/svg" viewBox="0 0 40 40" focusable="false" class="chakra-icon css-z5ki8p"><g clip-path="url(#clip0_3712_74572)"><path d="M19.9978 38.2456C9.91781 38.2456 1.75781 30.0856 1.75781 20.0056C1.75781 9.92562 9.91781 1.76562 19.9978 1.76562C30.0778 1.76562 38.2378 9.92562 38.2378 20.0056C38.2378 30.0856 30.0778 38.2456 19.9978 38.2456Z" fill="#3b82f6"></path><path d="M19.9986 2.9625C29.3586 2.9625 37.0386 10.6425 37.0386 20.0025C37.0386 29.3625 29.3586 37.0425 19.9986 37.0425C10.6386 37.0425 2.95859 29.3625 2.95859 20.0025C2.95859 10.6425 10.6386 2.9625 19.9986 2.9625ZM19.9986 0.5625C9.27859 0.5625 0.558594 9.2825 0.558594 20.0025C0.558594 30.7225 9.27859 39.4425 19.9986 39.4425C30.7186 39.4425 39.4386 30.7225 39.4386 20.0025C39.4386 9.2825 30.7186 0.5625 19.9986 0.5625Z" fill="#1d4ed8"></path><path d="M18.2416 19.5997L14.2416 13.6797H17.5216L18.6416 15.4397C19.1216 16.1597 19.6016 16.9597 20.0816 17.6797C20.4816 16.9597 20.9616 16.2397 21.4416 15.5197L22.5616 13.7597H25.6816L21.6816 19.6797L26.4016 26.3997H23.0416L21.2016 23.6797C20.7216 22.9597 20.3216 22.2397 19.8416 21.5997C19.3616 22.3197 18.9616 22.9597 18.4816 23.6797L16.8016 26.3997H13.6016L18.2416 19.5997Z" fill="var(--chakra-colors-icon-strong)"></path></g><defs><clipPath id="clip0_3712_74572"><rect width="40" height="40" fill="white"></rect></clipPath></defs></svg>
