<?xml version="1.0" encoding="UTF-8"?>
<svg xmlns="http://www.w3.org/2000/svg" viewBox="0 0 40 40" focusable="false" class="chakra-icon css-z5ki8p"><g clip-path="url(#clip0_3712_74638)"><path d="M0.398438 24.8016V15.2016C0.398438 14.3216 1.11844 13.6016 1.99844 13.6016H37.9984C38.8784 13.6016 39.5984 14.3216 39.5984 15.2016V24.8016C39.5984 25.6816 38.8784 26.4016 37.9984 26.4016H1.99844C1.11844 26.4016 0.398438 25.6816 0.398438 24.8016Z" fill="var(--chakra-colors-icon-subtle)"></path><path d="M15.1977 0.398438H24.7977C25.6777 0.398438 26.3977 1.11844 26.3977 1.99844V37.9984C26.3977 38.8784 25.6777 39.5984 24.7977 39.5984H15.1977C14.3177 39.5984 13.5977 38.8784 13.5977 37.9984V1.99844C13.5977 1.11844 14.3177 0.398438 15.1977 0.398438Z" fill="var(--chakra-colors-icon-subtle)"></path><path d="M37.1987 19.7591L31.1987 15.1191C31.0387 14.9591 30.7188 15.1191 30.7188 15.3591V24.6391C30.7188 24.8791 30.9587 25.0391 31.1987 24.8791L37.1987 20.2391C37.3587 20.0791 37.3587 19.9191 37.1987 19.7591Z" fill="var(--chakra-colors-icon-strong)"></path></g><defs><clipPath id="clip0_3712_74638"><rect width="40" height="40" fill="white"></rect></clipPath></defs></svg>
