<?xml version="1.0" encoding="UTF-8"?>
<svg xmlns="http://www.w3.org/2000/svg" viewBox="0 0 40 40" focusable="false" class="chakra-icon css-z5ki8p"><g clip-path="url(#clip0_3712_74468)"><path d="M34.3995 32.6341L27.7595 35.7541L19.5195 37.7541L11.8395 36.0741L5.51953 32.7141L19.9195 17.9141L34.3995 32.6341Z" fill="var(--chakra-colors-icon-subtle)"></path><path d="M33.3586 33.5159L27.5186 37.5959L19.9186 39.4359L12.8786 37.9159L6.55859 33.5959L19.9186 19.8359L33.3586 33.5159Z" fill="var(--chakra-colors-icon-brand)"></path><path d="M19.9984 39.5984C9.19844 39.5984 0.398438 30.7984 0.398438 19.9984C0.398438 9.19844 9.19844 0.398438 19.9984 0.398438C30.7984 0.398438 39.5984 9.19844 39.5984 19.9984C39.5984 30.7984 30.7984 39.5984 19.9984 39.5984ZM19.9984 1.83844C9.99844 1.83844 1.83844 9.99844 1.83844 19.9984C1.83844 29.9984 9.99844 38.1584 19.9984 38.1584C29.9984 38.1584 38.1584 29.9984 38.1584 19.9984C38.1584 9.99844 29.9984 1.83844 19.9984 1.83844Z" fill="var(--chakra-colors-icon-subtle)"></path><path d="M19.9972 34.8772C28.2152 34.8772 34.8772 28.2152 34.8772 19.9972C34.8772 11.7792 28.2152 5.11719 19.9972 5.11719C11.7792 5.11719 5.11719 11.7792 5.11719 19.9972C5.11719 28.2152 11.7792 34.8772 19.9972 34.8772Z" fill="var(--chakra-colors-icon-subtle)"></path><path d="M17.1992 14.1562H19.8392V23.8362H25.0392V26.1563H17.1992V14.1562Z" fill="var(--chakra-colors-icon-strong)"></path></g><defs><clipPath id="clip0_3712_74468"><rect width="40" height="40" fill="white"></rect></clipPath></defs></svg>
