<?xml version="1.0" encoding="UTF-8"?>
<svg xmlns="http://www.w3.org/2000/svg" viewBox="0 0 40 40" focusable="false" class="chakra-icon css-z5ki8p"><g clip-path="url(#clip0_3712_74477)"><path d="M7.60047 5.60156L4.48047 12.1616L2.48047 20.4016L4.16047 28.1616L7.44047 34.4016L22.3205 20.0016L7.60047 5.60156Z" fill="var(--chakra-colors-icon-subtle)"></path><path d="M6.47859 33.4328L2.39859 27.5928L0.558594 19.9928L2.07859 12.9528L6.39859 6.63281L20.1586 19.9928L6.47859 33.4328Z" fill="var(--chakra-colors-icon-brand)"></path><path d="M19.9984 39.5984C9.19844 39.5984 0.398438 30.7984 0.398438 19.9984C0.398438 9.19844 9.19844 0.398438 19.9984 0.398438C30.7984 0.398438 39.5984 9.19844 39.5984 19.9984C39.5984 30.7984 30.7984 39.5984 19.9984 39.5984ZM19.9984 1.83844C9.99844 1.83844 1.83844 9.99844 1.83844 19.9984C1.83844 29.9984 9.99844 38.1584 19.9984 38.1584C29.9984 38.1584 38.1584 29.9984 38.1584 19.9984C38.1584 9.99844 29.9984 1.83844 19.9984 1.83844Z" fill="var(--chakra-colors-icon-subtle)"></path><path d="M19.9972 34.8772C28.2152 34.8772 34.8772 28.2152 34.8772 19.9972C34.8772 11.7792 28.2152 5.11719 19.9972 5.11719C11.7792 5.11719 5.11719 11.7792 5.11719 19.9972C5.11719 28.2152 11.7792 34.8772 19.9972 34.8772Z" fill="var(--chakra-colors-icon-subtle)"></path><path d="M17.1992 14.1562H19.8392V23.8362H25.0392V26.1563H17.1992V14.1562Z" fill="var(--chakra-colors-icon-strong)"></path></g><defs><clipPath id="clip0_3712_74477"><rect width="40" height="40" fill="white"></rect></clipPath></defs></svg>
