<?xml version="1.0" encoding="UTF-8"?>
<svg xmlns="http://www.w3.org/2000/svg" viewBox="0 0 40 40" focusable="false" class="chakra-icon css-z5ki8p"><path d="M20.0809 4.96094H36.6409C38.0009 4.96094 39.0409 6.00094 39.0409 7.36094V32.6409C39.0409 34.0009 38.0009 35.0409 36.6409 35.0409H3.36094C2.00094 35.0409 0.960938 34.0009 0.960938 32.6409V24.0809C0.960937 13.5209 9.52094 4.96094 20.0809 4.96094Z" fill="var(--chakra-colors-icon-subtle)"></path><path d="M11.918 13.5938H14.718V23.9137H20.318V26.3938H11.918V13.5938Z" fill="var(--chakra-colors-icon-strong)"></path><path d="M21.6777 13.5938H25.3577C29.0377 13.5938 30.6377 14.7138 30.6377 16.7938C30.6377 18.0738 29.9177 18.8738 28.7177 19.3538C30.3177 19.8338 31.1177 20.9538 31.1177 22.4738C31.1177 24.8738 29.2777 26.3138 25.3577 26.3138H21.5977V13.5938H21.6777ZM25.9977 18.8738C27.1977 18.8738 27.9177 18.3937 27.9177 17.4337C27.9177 16.3937 27.2777 15.9938 25.3577 15.9938H24.4777V18.8738H25.9977ZM25.5177 23.9938C27.8377 23.9938 28.3977 23.5138 28.3977 22.3938C28.3977 21.3538 27.5977 20.7938 26.1577 20.7938H24.4777V23.9938H25.5177Z" fill="var(--chakra-colors-icon-strong)"></path></svg>
