<?xml version="1.0" encoding="UTF-8"?>
<svg xmlns="http://www.w3.org/2000/svg" viewBox="0 0 40 40" focusable="false" class="chakra-icon css-z5ki8p"><path d="M19.9209 4.96094H3.36094C2.00094 4.96094 0.960938 6.00094 0.960938 7.36094V32.6409C0.960938 34.0009 2.00094 35.0409 3.36094 35.0409H36.6409C38.0009 35.0409 39.0409 34.0009 39.0409 32.6409V24.0809C39.0409 13.5209 30.4809 4.96094 19.9209 4.96094Z" fill="var(--chakra-colors-icon-subtle)"></path><path d="M8.71875 13.5938H12.7188C15.5988 13.5938 18.2387 14.3937 18.2387 17.4337C18.2387 19.0337 17.3588 20.3938 15.6788 20.9538L19.1988 26.3938H15.9988L12.7988 21.3538H11.5188V26.3938H8.71875V13.5938ZM12.8788 19.2738C14.4788 19.2738 15.3588 18.8738 15.3588 17.6738C15.3588 16.5538 14.6388 16.0738 12.5588 16.0738H11.5188V19.2738H12.8788Z" fill="var(--chakra-colors-icon-strong)"></path><path d="M20.1581 13.5938H23.8381C27.5181 13.5938 29.1181 14.7138 29.1181 16.7938C29.1181 18.0738 28.3981 18.8738 27.1981 19.3538C28.7981 19.8338 29.5981 20.9538 29.5981 22.4738C29.5981 24.8738 27.7581 26.3138 23.8381 26.3138H20.0781V13.5938H20.1581ZM24.4781 18.8738C25.6781 18.8738 26.3981 18.3937 26.3981 17.4337C26.3981 16.3937 25.7581 15.9938 23.8381 15.9938H22.9581V18.8738H24.4781ZM23.9981 23.9938C26.3181 23.9938 26.8781 23.5138 26.8781 22.3938C26.8781 21.3538 26.0781 20.7938 24.6381 20.7938H22.9581V23.9938H23.9981Z" fill="var(--chakra-colors-icon-strong)"></path></svg>
