<?xml version="1.0" encoding="UTF-8"?>
<svg xmlns="http://www.w3.org/2000/svg" viewBox="0 0 40 40" focusable="false" class="chakra-icon css-z5ki8p"><g clip-path="url(#clip0_3712_74555)"><path d="M39.0409 19.9209V3.36094C39.0409 2.00094 38.0009 0.960938 36.6409 0.960938H3.36094C2.00094 0.960938 0.960938 2.00094 0.960938 3.36094V36.6409C0.960938 38.0009 2.00094 39.0409 3.36094 39.0409H19.9209C30.4809 39.0409 39.0409 30.4809 39.0409 19.9209Z" fill="var(--chakra-colors-icon-subtle)"></path><path d="M10 13.5938H14C16.88 13.5938 19.52 14.3937 19.52 17.4337C19.52 19.0337 18.64 20.3938 16.96 20.9538L20.56 26.3138H17.36L14.16 21.2738H12.8V26.3938H10V13.5938ZM14.16 19.2738C15.76 19.2738 16.64 18.8738 16.64 17.6738C16.64 16.5538 15.92 16.0738 13.84 16.0738H12.8V19.2738H14.16Z" fill="var(--chakra-colors-icon-strong)"></path><path d="M24.7206 16.0738H20.6406V13.5938H31.6806V16.0738H27.6006V26.3938H24.8006V16.0738H24.7206Z" fill="var(--chakra-colors-icon-strong)"></path></g><defs><clipPath id="clip0_3712_74555"><rect width="40" height="40" fill="white"></rect></clipPath></defs></svg>
